<?xml version="1.0" encoding="UTF-8" standalone="no"?>
<svg width="271px" height="81px" viewBox="0 0 271 81" version="1.1" xmlns="http://www.w3.org/2000/svg" xmlns:xlink="http://www.w3.org/1999/xlink">
    <!-- Generator: Sketch 3.8.3 (29802) - http://www.bohemiancoding.com/sketch -->
    <title>Logo_Estavayer</title>
    <desc>Created with Sketch.</desc>
    <defs>
        <polygon id="path-1" points="69.3598963 42.6513681 0 42.6513681 0 21.4190587 0 0.186749215 69.3598963 0.186749215 69.3598963 42.6513681"></polygon>
        <polygon id="path-3" points="9.09704549 21.815537 9.09704549 0.0768920459 0.369936188 0.0768920459 0.369936188 21.815537 9.09704549 21.815537"></polygon>
    </defs>
    <g id="Page_Informative" stroke="none" stroke-width="1" fill="none" fill-rule="evenodd">
        <g id="Side-Nav" transform="translate(-130.000000, -88.000000)">
            <g id="Header" transform="translate(0.000000, 50.000000)">
                <g id="Logo_Estavayer" transform="translate(130.000000, 38.000000)">
                    <g id="rose">
                        <path d="M36.124515,12.5954672 C32.4938806,27.9818486 -14.1795762,24.4780586 35.7264523,62.3293541 C26.9158372,60.778359 23.1477479,44.7191224 18.1703741,33.7864208 L36.124515,12.5954672 Z" id="Fill-1" fill="#E30613"></path>
                        <path d="M31.5847322,56.4155227 L22.2032426,30.9315295 C34.3088005,41.3886883 3.24361575,83.8375621 64.3053337,56.0958367 C59.9349858,63.181943 43.8241695,57.1565404 31.5847322,56.4155227" id="Fill-3" fill="#981711"></path>
                        <path d="M63.8741388,53.3310714 C51.7661973,42.8743112 82.8321766,0.424241599 21.7712531,28.165967 C26.1412038,21.0806579 42.0132619,27.0163731 54.2534937,27.758188 L63.8741388,53.3310714 Z" id="Fill-5" fill="#E30613"></path>
                        <path d="M31.1365342,78.9304624 L31.1365342,78.9304624 C42.6005038,60.1112438 107.528436,88.3683731 56.5628935,11.8023909 C66.5148602,21.1003892 63.8607111,42.1263178 66.5212165,58.6618945 L31.1365342,78.9304624 Z" id="Fill-7" fill="#981711"></path>
                        <path d="M71.7456117,63.4878769 C61.2609083,43.3767603 115.169812,3.13858264 25.568343,9.16836998 C36.5770433,2.53986904 55.7174272,16.3999692 71.3598643,23.5650005 L71.7456117,63.4878769 Z" id="Fill-9" fill="#E30613"></path>
                        <path d="M71.5784015,30.0075096 C51.2915015,30.0752734 42.5309422,-45.1972163 2.32779327,42.4377924 C0.430440141,30.6265523 23.2105957,22.0871106 37.1801362,11.3425534 L71.5784015,30.0075096 Z" id="Fill-11" fill="#981711"></path>
                        <g id="Group-15" transform="translate(0.000000, 38.106008)">
                            <mask id="mask-2" fill="white">
                                <use xlink:href="#path-1"></use>
                            </mask>
                            <g id="Clip-14"></g>
                            <path d="M0,12.615039 C22.9271448,12.5353168 29.0148834,87.8915149 69.2482247,0.186749215 C71.1479614,11.9975907 48.3697922,20.5330463 34.3994571,31.2768063 L0,12.615039 Z" id="Fill-13" fill="#E30613" mask="url(#mask-2)"></path>
                        </g>
                    </g>
                    <polygon id="Fill-16" fill="#1D1C1B" points="88.0211355 25.6664374 103.660792 25.6664374 103.660792 28.2629889 90.8782887 28.2629889 90.8782887 38.57027 103.236112 38.57027 103.236112 41.1660243 90.8782887 41.1660243 90.8782887 51.7447594 103.660792 51.7447594 103.660792 54.3413109 88.0211355 54.3413109"></polygon>
                    <path d="M121.139601,38.3623147 C120.693072,37.497329 120.016524,36.7882002 119.10956,36.236124 C118.201803,35.6844465 117.169302,35.4082092 116.009676,35.4082092 C115.473761,35.4082092 114.938641,35.4683994 114.403918,35.5875841 C113.868003,35.7071674 113.392076,35.9004936 112.976533,36.1687588 C112.558607,36.4378212 112.224902,36.7810252 111.972636,37.1983708 C111.719179,37.6169123 111.593643,38.1091967 111.593643,38.6756229 C111.593643,39.6601918 111.994486,40.4135665 112.797365,40.9357468 C113.600244,41.4583257 114.864749,41.8983921 116.588893,42.2559461 C119.057518,42.7637764 120.878199,43.5028011 122.053715,44.4718242 C123.22804,45.4420432 123.815203,46.7474939 123.815203,48.3881765 C123.815203,49.5824148 123.585582,50.5889073 123.124751,51.40885 C122.662728,52.2303871 122.060866,52.9020465 121.317975,53.4238282 C120.573494,53.9460085 119.734066,54.3187097 118.797308,54.542729 C117.860946,54.7667484 116.915448,54.8783594 115.964388,54.8783594 C114.38763,54.8783594 112.856558,54.5491068 111.370775,53.8937905 C109.882608,53.2376769 108.663789,52.2080649 107.712729,50.8049545 L110.121366,49.0147928 C110.65609,49.9399688 111.443475,50.7156656 112.485112,51.342282 C113.526353,51.9684997 114.67128,52.2818079 115.919894,52.2818079 C116.573797,52.2818079 117.197906,52.2232121 117.793411,52.1036288 C118.388519,51.9840455 118.908543,51.7751734 119.354675,51.4762152 C119.801204,51.1784529 120.158349,50.7985767 120.42571,50.3349922 C120.693072,49.8730021 120.827348,49.2990024 120.827348,48.6121958 C120.827348,47.5080436 120.298982,46.6805273 119.24344,46.1280526 C118.187501,45.5755778 116.663183,45.0613697 114.67128,44.5834353 C114.046774,44.4343548 113.384528,44.2486021 112.685733,44.0237855 C111.986938,43.8001648 111.340185,43.472108 110.745872,43.0392166 C110.150764,42.6071223 109.660138,42.0626198 109.274391,41.4053104 C108.887054,40.7499941 108.693982,39.928457 108.693982,38.943888 C108.693982,37.8700302 108.900561,36.9520292 109.318487,36.191081 C109.73403,35.4305314 110.291,34.8043136 110.991384,34.3112319 C111.689384,33.8189474 112.485112,33.4542184 113.377377,33.2150519 C114.269244,32.976284 115.191304,32.8567007 116.143158,32.8567007 C117.599544,32.8567007 119.013422,33.1859533 120.380819,33.8412696 C121.747819,34.4981804 122.774757,35.4233564 123.458456,36.6167975 L121.139601,38.3623147 Z" id="Fill-18" fill="#1D1C1B"></path>
                    <polygon id="Fill-20" fill="#1D1C1B" points="130.804502 35.5864281 126.363043 35.5864281 126.363043 33.1449362 130.804502 33.1449362 130.804502 25.6661982 133.507515 25.6661982 133.507515 33.1449362 138.566726 33.1449362 138.566726 35.5864281 133.507515 35.5864281 133.507515 54.3410718 130.804502 54.3410718"></polygon>
                    <path d="M143.239872,43.8012809 C143.239872,44.9895401 143.444862,46.1072451 143.856829,47.1532001 C144.269194,48.1995538 144.853973,49.1103797 145.614741,49.8844821 C146.373524,50.6593817 147.287638,51.2740398 148.356687,51.725666 C149.424544,52.1772921 150.602047,52.4033045 151.889593,52.4033045 C153.023,52.4033045 154.103966,52.1844671 155.133289,51.7447993 C156.163405,51.3059287 157.065204,50.705222 157.837493,49.9426793 C158.609783,49.1813325 159.220781,48.2709051 159.671681,47.2109987 C160.121786,46.1522881 160.348229,45.0026942 160.348229,43.762217 C160.348229,42.5998676 160.134896,41.4897362 159.710613,40.4298298 C159.285139,39.3711192 158.692812,38.4479363 157.933632,37.6598825 C157.173658,36.8718287 156.27901,36.2392332 155.250483,35.7609001 C154.219572,35.2833642 153.099275,35.0437991 151.889593,35.0437991 C150.731556,35.0437991 149.630726,35.2506781 148.5875,35.663639 C147.545068,36.0773972 146.623803,36.6589705 145.826883,37.4071632 C145.028373,38.1565517 144.397909,39.0733568 143.934297,40.1583757 C143.470685,41.2433947 143.239872,42.4583607 143.239872,43.8012809 L143.239872,43.8012809 Z M162.896705,54.3409522 L160.193294,54.3409522 L160.193294,50.6211151 L160.115827,50.6211151 C159.523103,51.4996536 158.866815,52.2099782 158.145774,52.7524877 C157.424732,53.2949971 156.690977,53.7215108 155.945305,54.0308329 C155.197646,54.3409522 154.471042,54.5538104 153.76311,54.6706034 C153.054384,54.7862006 152.43107,54.845195 151.889593,54.845195 C150.215505,54.845195 148.684433,54.5474326 147.294789,53.953901 C145.90435,53.3599707 144.706586,52.5587628 143.703087,51.551473 C142.698395,50.5437846 141.918955,49.3615046 141.366752,48.0058289 C140.812166,46.6489573 140.535667,45.2095733 140.535667,43.6844879 C140.535667,42.2646358 140.806207,40.8890296 141.347286,39.5584663 C141.887173,38.2287003 142.646353,37.0460217 143.625619,36.0128222 C144.604488,34.9792241 145.794307,34.1529037 147.19865,33.5326651 C148.60061,32.9128251 150.164257,32.6027058 151.889593,32.6027058 C152.455701,32.6027058 153.099275,32.6605044 153.821509,32.7772974 C154.540962,32.8932932 155.275113,33.1061514 156.022772,33.4162707 C156.768445,33.72639 157.495048,34.1592814 158.204172,34.7141478 C158.912104,35.2698115 159.54972,35.9865139 160.115827,36.865451 L160.193294,36.865451 L160.193294,33.1448167 L162.896705,33.1448167 L162.896705,54.3409522 Z" id="Fill-22" fill="#1D1C1B"></path>
                    <polygon id="Fill-24" fill="#1D1C1B" points="165.561302 33.1448565 168.457387 33.1448565 175.911331 50.9699395 183.480483 33.1448565 186.376966 33.1448565 177.456705 54.340992 174.482357 54.340992"></polygon>
                    <path d="M191.010464,43.8012809 C191.010464,44.9895401 191.215455,46.1072451 191.627819,47.1532001 C192.040581,48.1995538 192.62536,49.1103797 193.385334,49.8844821 C194.144514,50.6593817 195.059025,51.2740398 196.127279,51.725666 C197.195534,52.1772921 198.372639,52.4033045 199.66098,52.4033045 C200.793592,52.4033045 201.874956,52.1844671 202.904676,51.7447993 C203.933998,51.3059287 204.836194,50.705222 205.608086,49.9426793 C206.380375,49.1813325 206.991771,48.2709051 207.442273,47.2109987 C207.893173,46.1522881 208.118821,45.0026942 208.118821,43.762217 C208.118821,42.5998676 207.905885,41.4897362 207.481206,40.4298298 C207.056129,39.3711192 206.464199,38.4479363 205.705019,37.6598825 C204.945045,36.8718287 204.049603,36.2392332 203.021075,35.7609001 C201.990164,35.2833642 200.870662,35.0437991 199.66098,35.0437991 C198.502149,35.0437991 197.401319,35.2506781 196.358887,35.663639 C195.31566,36.0773972 194.39519,36.6589705 193.597475,37.4071632 C192.798966,38.1565517 192.168501,39.0733568 191.705286,40.1583757 C191.242072,41.2433947 191.010464,42.4583607 191.010464,43.8012809 L191.010464,43.8012809 Z M210.668092,54.3409522 L207.963887,54.3409522 L207.963887,50.6211151 L207.886419,50.6211151 C207.29449,51.4996536 206.637805,52.2099782 205.917161,52.7524877 C205.196119,53.2949971 204.461967,53.7215108 203.715897,54.0308329 C202.969033,54.3409522 202.242032,54.5538104 201.5341,54.6706034 C200.824976,54.7862006 200.201662,54.845195 199.66098,54.845195 C197.986892,54.845195 196.455026,54.5474326 195.065381,53.953901 C193.674942,53.3599707 192.477576,52.5587628 191.474474,51.551473 C190.469782,50.5437846 189.690342,49.3615046 189.137345,48.0058289 C188.583553,46.6489573 188.307054,45.2095733 188.307054,43.6844879 C188.307054,42.2646358 188.576799,40.8890296 189.118276,39.5584663 C189.658561,38.2287003 190.416946,37.0460217 191.396212,36.0128222 C192.374683,34.9792241 193.565694,34.1529037 194.969242,33.5326651 C196.371997,32.9128251 197.935247,32.6027058 199.66098,32.6027058 C200.227088,32.6027058 200.870662,32.6605044 201.592101,32.7772974 C202.312349,32.8932932 203.0465,33.1061514 203.793365,33.4162707 C204.539434,33.72639 205.266435,34.1592814 205.975559,34.7141478 C206.682697,35.2698115 207.320312,35.9865139 207.886419,36.865451 L207.963887,36.865451 L207.963887,33.1448167 L210.668092,33.1448167 L210.668092,54.3409522 Z" id="Fill-26" fill="#1D1C1B"></path>
                    <polygon id="Fill-28" fill="#1D1C1B" points="221.867242 53.6434229 213.641009 33.1452551 216.498559 33.1452551 223.218749 50.0395816 230.401756 33.1452551 233.259704 33.1452551 221.017485 61.7814634 218.198073 61.7814634"></polygon>
                    <path d="M254.500326,42.2899476 C254.294143,41.0502677 253.902437,39.9716265 253.32322,39.0544228 C252.743605,38.1376177 252.06666,37.38225 251.295165,36.7875225 C250.522876,36.1935923 249.698544,35.7547216 248.823362,35.4697148 C247.947386,35.1863025 247.086108,35.0439984 246.236352,35.0439984 C245.41202,35.0439984 244.556304,35.1863025 243.668012,35.4697148 C242.779323,35.7547216 241.949827,36.1935923 241.176743,36.7875225 C240.404454,37.38225 239.728303,38.1376177 239.149483,39.0544228 C238.570266,39.9716265 238.190081,41.0502677 238.010118,42.2899476 L254.500326,42.2899476 Z M238.010118,44.7318381 C238.061366,45.764639 238.319193,46.7464177 238.782408,47.6767756 C239.246417,48.6063362 239.857415,49.4199011 240.616595,50.1178688 C241.375775,50.8150393 242.239436,51.3711015 243.204798,51.7836638 C244.169762,52.1970234 245.167303,52.4035038 246.197419,52.4035038 C247.149274,52.3783913 248.037963,52.2297095 248.862295,51.9582554 C249.686229,51.6864028 250.419983,51.3256599 251.063558,50.8732365 C251.707133,50.4220089 252.261322,49.8982342 252.723345,49.3035067 C253.187354,48.7095764 253.535361,48.0769809 253.766174,47.4049229 L256.624519,47.4049229 C256.264197,48.4648293 255.74894,49.4458108 255.079543,50.350259 C254.409748,51.2543085 253.618787,52.0423623 252.704673,52.7140217 C251.790162,53.3860797 250.786265,53.9090572 249.691791,54.2829543 C248.598111,54.6576486 247.446033,54.8449957 246.236352,54.8449957 C244.768445,54.8449957 243.364499,54.5603875 242.0265,53.9923669 C240.688103,53.4243464 239.516162,52.643069 238.512265,51.6481361 C237.508368,50.6536019 236.709859,49.4852733 236.117929,48.1407587 C235.526,46.7978385 235.229638,45.3381253 235.229638,43.7620177 C235.229638,42.2644365 235.51289,40.8437872 236.078997,39.4996712 C236.645104,38.156751 237.42375,36.9808488 238.415332,35.973559 C239.406913,34.9662692 240.565347,34.1594807 241.891032,33.5519977 C243.216716,32.9449133 244.652443,32.6288148 246.197419,32.6029051 C247.356251,32.6029051 248.430861,32.7643425 249.422443,33.0868188 C250.412833,33.4104908 251.301124,33.8302281 252.086921,34.3468279 C252.871526,34.8638262 253.559992,35.4446023 254.15351,36.0899534 C254.745043,36.7361017 255.23408,37.38225 255.620622,38.0276011 C256.238771,39.0352895 256.669013,40.0429779 256.914127,41.0502677 C257.158845,42.0575575 257.281998,43.0265806 257.281998,43.9561413 C257.281998,44.0860884 257.274847,44.2152384 257.261737,44.3439897 C257.248627,44.4731396 257.242271,44.6022896 257.242271,44.7318381 L238.010118,44.7318381 Z" id="Fill-30" fill="#1D1C1B"></path>
                    <g id="Group-34" transform="translate(261.005235, 32.525455)">
                        <mask id="mask-4" fill="white">
                            <use xlink:href="#path-3"></use>
                        </mask>
                        <g id="Clip-33"></g>
                        <path d="M0.369936188,0.619401504 L3.07294931,0.619401504 L3.07294931,3.68073335 L3.15001935,3.68073335 C3.45869677,2.93174344 3.83848522,2.33103678 4.2889874,1.87861339 C4.73988686,1.42778444 5.22256777,1.0718249 5.73703015,0.813525021 C6.25188979,0.555623758 6.7997227,0.381032176 7.37893979,0.289750276 C7.95775962,0.20046143 8.53062043,0.129110076 9.09712494,0.0768920459 L9.09712494,2.94410037 C8.14407843,3.0218295 7.27525278,3.23548495 6.48985347,3.5838709 C5.70485142,3.93265545 5.05531784,4.41696771 4.5404582,5.03680769 C4.07684616,5.63153518 3.7161266,6.2968168 3.45869677,7.03305116 C3.20086969,7.76888692 3.07294931,8.56331847 3.07294931,9.41594723 L3.07294931,21.815537 L0.369936188,21.815537 L0.369936188,0.619401504 Z" id="Fill-32" fill="#1D1C1B" mask="url(#mask-4)"></path>
                    </g>
                </g>
            </g>
        </g>
    </g>
</svg>